HIERARCHY
ROOT hip
{
  OFFSET 0 0 0
  CHANNELS 6 Xposition Yposition Zposition Zrotation Yrotation Xrotation
  JOINT abdomen
  {
    OFFSET 0 20.6881 -0.73152
    CHANNELS 3 Zrotation Xrotation Yrotation
    JOINT chest
    {
      OFFSET 0 11.7043 -0.48768
      CHANNELS 3 Zrotation Xrotation Yrotation
      JOINT neck
      {
        OFFSET 0 22.1894 -2.19456
        CHANNELS 3 Zrotation Xrotation Yrotation
        JOINT head
        {
          OFFSET -0.24384 7.07133 1.2192
          CHANNELS 3 Zrotation Xrotation Yrotation
          JOINT leftEye
          {
            OFFSET 4.14528 8.04674 8.04672
            CHANNELS 3 Zrotation Xrotation Yrotation
            End Site
            {
              OFFSET 1 0 0
            }
          }
          JOINT rightEye
          {
            OFFSET -3.6576 8.04674 8.04672
            CHANNELS 3 Zrotation Xrotation Yrotation
            End Site
            {
              OFFSET 1 0 0
            }
          }
        }
      }
      JOINT rCollar
      {
        OFFSET -2.68224 19.2634 -4.8768
        CHANNELS 3 Zrotation Xrotation Yrotation
        JOINT rShldr
        {
          OFFSET -8.77824 -1.95073 1.46304
          CHANNELS 3 Zrotation Xrotation Yrotation
          JOINT rForeArm
          {
            OFFSET -28.1742 -1.7115 0.48768
            CHANNELS 3 Zrotation Xrotation Yrotation
            JOINT rHand
            {
              OFFSET -22.5879 0.773209 7.07136
              CHANNELS 3 Zrotation Xrotation Yrotation
              JOINT rThumb1
              {
                OFFSET -1.2192 -0.487915 3.41376
                CHANNELS 3 Zrotation Xrotation Yrotation
                JOINT rThumb2
                {
                  OFFSET -3.37035 -0.52449 3.41376
                  CHANNELS 3 Zrotation Xrotation Yrotation
                  End Site
                  {
                    OFFSET -1.78271 -1.18214 1.43049
                  }
                }
              }
              JOINT rIndex1
              {
                OFFSET -7.75947 0.938293 5.60832
                CHANNELS 3 Zrotation Xrotation Yrotation
                JOINT rIndex2
                {
                  OFFSET -2.54057 -0.884171 1.56538
                  CHANNELS 3 Zrotation Xrotation Yrotation
                  End Site
                  {
                    OFFSET -1.62519 -0.234802 1.16502
                  }
                }
              }
              JOINT rMid1
              {
                OFFSET -8.24714 1.18213 3.41376
                CHANNELS 3 Zrotation Xrotation Yrotation
                JOINT rMid2
                {
                  OFFSET -3.10165 -0.590103 1.0647
                  CHANNELS 3 Zrotation Xrotation Yrotation
                  End Site
                  {
                    OFFSET -2.48547 -0.328903 0.83742
                  }
                }
              }
              JOINT rRing1
              {
                OFFSET -8.82822 0.546677 1.51678
                CHANNELS 3 Zrotation Xrotation Yrotation
                JOINT rRing2
                {
                  OFFSET -2.60934 -0.819778 -0.0198488
                  CHANNELS 3 Zrotation Xrotation Yrotation
                  End Site
                  {
                    OFFSET -2.33842 -0.294052 0.168128
                  }
                }
              }
              JOINT rPinky1
              {
                OFFSET -8.27202 -0.0477905 -0.4584
                CHANNELS 3 Zrotation Xrotation Yrotation
                JOINT rPinky2
                {
                  OFFSET -1.82734 -0.647385 -0.700984
                  CHANNELS 3 Zrotation Xrotation Yrotation
                  End Site
                  {
                    OFFSET -1.69225 -0.51767 -0.607171
                  }
                }
              }
            }
          }
        }
      }
      JOINT lCollar
      {
        OFFSET 2.68224 19.2634 -4.8768
        CHANNELS 3 Zrotation Xrotation Yrotation
        JOINT lShldr
        {
          OFFSET 8.77824 -1.95073 1.46304
          CHANNELS 3 Zrotation Xrotation Yrotation
          JOINT lForeArm
          {
            OFFSET 28.1742 -1.7115 0.48768
            CHANNELS 3 Zrotation Xrotation Yrotation
            JOINT lHand
            {
              OFFSET 22.5879 0.773209 7.07136
              CHANNELS 3 Zrotation Xrotation Yrotation
              JOINT lThumb1
              {
                OFFSET 1.2192 -0.487915 3.41376
                CHANNELS 3 Zrotation Xrotation Yrotation
                JOINT lThumb2
                {
                  OFFSET 3.37035 -0.52449 3.41376
                  CHANNELS 3 Zrotation Xrotation Yrotation
                  End Site
                  {
                    OFFSET 1.78271 -1.18214 1.43049
                  }
                }
              }
              JOINT lIndex1
              {
                OFFSET 7.75947 0.938293 5.60832
                CHANNELS 3 Zrotation Xrotation Yrotation
                JOINT lIndex2
                {
                  OFFSET 2.54057 -0.884171 1.56538
                  CHANNELS 3 Zrotation Xrotation Yrotation
                  End Site
                  {
                    OFFSET 1.62519 -0.234802 1.16502
                  }
                }
              }
              JOINT lMid1
              {
                OFFSET 8.24714 1.18213 3.41376
                CHANNELS 3 Zrotation Xrotation Yrotation
                JOINT lMid2
                {
                  OFFSET 3.10165 -0.590103 1.0647
                  CHANNELS 3 Zrotation Xrotation Yrotation
                  End Site
                  {
                    OFFSET 2.48547 -0.328903 0.83742
                  }
                }
              }
              JOINT lRing1
              {
                OFFSET 8.82822 0.546677 1.51678
                CHANNELS 3 Zrotation Xrotation Yrotation
                JOINT lRing2
                {
                  OFFSET 2.60934 -0.819778 -0.0198488
                  CHANNELS 3 Zrotation Xrotation Yrotation
                  End Site
                  {
                    OFFSET 2.33842 -0.294052 0.168128
                  }
                }
              }
              JOINT lPinky1
              {
                OFFSET 8.27202 -0.0477905 -0.4584
                CHANNELS 3 Zrotation Xrotation Yrotation
                JOINT lPinky2
                {
                  OFFSET 1.82734 -0.647385 -0.700984
                  CHANNELS 3 Zrotation Xrotation Yrotation
                  End Site
                  {
                    OFFSET 1.69225 -0.51767 -0.607171
                  }
                }
              }
            }
          }
        }
      }
    }
  }
  JOINT rButtock
  {
    OFFSET -8.77824 4.35084 1.2192
    CHANNELS 3 Zrotation Xrotation Yrotation
    JOINT rThigh
    {
      OFFSET 0 -1.70687 -2.19456
      CHANNELS 3 Zrotation Xrotation Yrotation
      JOINT rShin
      {
        OFFSET 0 -36.8199 0.73152
        CHANNELS 3 Zrotation Xrotation Yrotation
        JOINT rFoot
        {
          OFFSET 0.73152 -45.1104 -5.12064
          CHANNELS 3 Zrotation Xrotation Yrotation
          End Site
          {
            OFFSET -1.1221 -3.69964 12.103
          }
        }
      }
    }
  }
  JOINT lButtock
  {
    OFFSET 8.77824 4.35084 1.2192
    CHANNELS 3 Zrotation Xrotation Yrotation
    JOINT lThigh
    {
      OFFSET 0 -1.70687 -2.19456
      CHANNELS 3 Zrotation Xrotation Yrotation
      JOINT lShin
      {
        OFFSET 0 -36.8199 0.73152
        CHANNELS 3 Zrotation Xrotation Yrotation
        JOINT lFoot
        {
          OFFSET -0.73152 -45.1104 -5.12064
          CHANNELS 3 Zrotation Xrotation Yrotation
          End Site
          {
            OFFSET 1.1221 -3.69964 12.103
          }
        }
      }
    }
  }
}
MOTION
Frames:	10
Frame Time:	0.00833333
-0.004501 68.5745 0.0359 -16.4621 -22.5302 13.2446 13.3937 6.29702 10.0761 -2.11917 -6.8943 2.8058 -2.00757 13.4379 0.793455 6.71903 -23.8469 3.07164 -0.0 0.0 0.0 -0.0 0.0 0.0 -0.0 0.0 -0.0 77.0228 44.6943 -18.9753 -28.4145 -36.7028 78.1877 -0.12786 10.1423 1.44063 -0.0 -0.0 0.0 -0.0 -0.0 0.0 -0.0 -0.0 0.0 7.73091 5.47488 0.417314 -0.0 -0.0 0.0 2.90554 0.965183 0.102902 -0.0 -0.0 0.0 10.2786 0.731801 0.025912 -0.0 -0.0 0.0 2.22167 -0.733487 -0.20892 -0.0 0.0 -0.0 -52.9469 31.8754 -29.605001 28.4324 -35.3967 -76.0017 0.967639 -26.7682 4.06534 0.0 -0.0 0.0 0.0 -0.0 0.0 0.0 -0.0 0.0 -7.73091 5.47488 -0.417314 0.0 -0.0 0.0 -2.90554 0.965183 -0.102902 0.0 -0.0 0.0 -10.2786 0.731801 -0.025912 0.0 -0.0 0.0 -2.22167 -0.733487 0.20892 -0.0 0.0 -0.0 1.14685 -0.616343 -7.02081 -0.161667 41.332 1.88668 -18.8284 -21.5777 -32.6869 0.0 0.0 0.0 71.4807 -60.114403 59.6693 2.85308 73.7712 -3.0398 0.415246 -3.02594 0.032247
-0.0121 68.5529 0.062799 -16.4926 -22.4691 13.2813 13.4454 6.27365 10.0664 -2.14246 -6.88166 2.80468 -2.01074 13.4187 0.77046 6.71593 -23.8289 3.02531 -0.0 0.0 0.0 -0.0 0.0 0.0 0.0 0.0 0.0 77.008 44.7175 -18.9876 -28.4138 -36.7196 78.2166 -0.127762 10.1382 1.44005 -0.0 0.0 0.0 -0.0 0.0 0.0 -0.0 0.0 0.0 7.73091 5.47488 0.417314 -0.0 0.0 0.0 2.90554 0.965183 0.102902 -0.0 0.0 0.0 10.2786 0.731801 0.025912 -0.0 0.0 0.0 2.22167 -0.733487 -0.20892 0.0 0.0 0.0 -53.0124 31.830301 -29.485703 28.4323 -35.4036 -76.0136 0.980106 -26.9246 4.09299 -0.0 -0.0 -0.0 -0.0 -0.0 -0.0 -0.0 -0.0 -0.0 -7.73091 5.47488 -0.417314 -0.0 -0.0 -0.0 -2.90554 0.965183 -0.102902 -0.0 -0.0 -0.0 -10.2786 0.731801 -0.025912 -0.0 -0.0 -0.0 -2.22167 -0.733487 0.20892 -0.0 0.0 -0.0 1.19206 -0.594892 -7.00959 -0.16062 41.2958 1.88788 -18.8696 -21.5283 -32.7944 0.0 0.0 0.0 71.5204 -60.2107 59.653595 2.86795 73.8341 -3.05473 0.422645 -3.07712 0.065177
-0.009 68.5265 0.0828 -16.4786 -22.3918 13.3115 13.4946 6.25576 10.0567 -2.16586 -6.87112 2.80348 -2.00953 13.3987 0.745422 6.71258 -23.8196 2.9753 -0.0 0.0 0.0 -0.0 0.0 0.0 0.0 0.0 0.0 76.9865 44.7423 -18.9863 -28.413 -36.7352 78.2436 -0.127147 10.1143 1.43658 0.0 0.0 -0.0 0.0 0.0 -0.0 0.0 0.0 -0.0 7.73091 5.47488 0.417314 0.0 0.0 -0.0 2.90554 0.965183 0.102902 0.0 0.0 -0.0 10.2786 0.731801 0.025912 0.0 0.0 -0.0 2.22167 -0.733487 -0.20892 0.0 0.0 0.0 -53.0679 31.779102 -29.377802 28.4324 -35.4116 -76.0274 0.992167 -27.0739 4.11951 -0.0 0.0 -0.0 -0.0 0.0 -0.0 -0.0 0.0 -0.0 -7.73091 5.47488 -0.417314 -0.0 0.0 -0.0 -2.90554 0.965183 -0.102902 -0.0 0.0 -0.0 -10.2786 0.731801 -0.025912 -0.0 0.0 -0.0 -2.22167 -0.733487 0.20892 -0.0 0.0 -0.0 1.24177 -0.570155 -6.99826 -0.159527 41.2548 1.88871 -18.9086 -21.4604 -32.9132 0.0 0.0 0.0 71.564 -60.3082 59.6406 2.88268 73.8963 -3.06977 0.428698 -3.13404 0.089991
-0.014801 68.5039 0.105599 -16.4968 -22.3306 13.3315 13.5283 6.23919 10.0577 -2.18293 -6.85783 2.80408 -2.00244 13.3795 0.720969 6.70374 -23.8147 2.92523 -0.0 0.0 0.0 -0.0 0.0 0.0 0.0 0.0 0.0 76.9467 44.768 -18.9592 -28.4126 -36.7447 78.2603 -0.126109 10.0739 1.43072 0.0 0.0 -0.0 0.0 0.0 -0.0 0.0 0.0 -0.0 7.73091 5.47488 0.417314 0.0 0.0 -0.0 2.90554 0.965183 0.102902 0.0 0.0 -0.0 10.2786 0.731801 0.025912 0.0 0.0 -0.0 2.22167 -0.733487 -0.20892 0.0 0.0 0.0 -53.1151 31.7207 -29.2896 28.4323 -35.4134 -76.0306 1.00003 -27.1701 4.13665 -0.0 0.0 -0.0 -0.0 0.0 -0.0 -0.0 0.0 -0.0 -7.73091 5.47488 -0.417314 -0.0 0.0 -0.0 -2.90554 0.965183 -0.102902 -0.0 0.0 -0.0 -10.2786 0.731801 -0.025912 -0.0 0.0 -0.0 -2.22167 -0.733487 0.20892 -0.0 0.0 -0.0 1.28784 -0.551624 -6.98395 -0.158634 41.2195 1.88916 -18.9441 -21.3757 -33.0394 0.0 0.0 0.0 71.6184 -60.391804 59.65 2.8973 73.9582 -3.08497 0.432043 -3.1982 0.103051
-0.015801 68.481 0.129101 -16.4872 -22.2894 13.3565 13.5447 6.22387 10.071 -2.192 -6.83909 2.80616 -1.98053 13.3545 0.698518 6.67869 -23.8127 2.87538 -0.0 0.0 0.0 -0.0 0.0 0.0 0.0 0.0 0.0 76.8838 44.789 -18.8992 -28.4124 -36.747 78.2648 -0.124403 10.0072 1.42104 0.0 0.0 -0.0 0.0 0.0 -0.0 0.0 0.0 -0.0 7.73091 5.47488 0.417314 0.0 0.0 -0.0 2.90554 0.965183 0.102902 0.0 0.0 -0.0 10.2786 0.731801 0.025912 0.0 0.0 -0.0 2.22167 -0.733487 -0.20892 0.0 0.0 0.0 -53.153 31.6515 -29.2306 28.4322 -35.4057 -76.0182 1.00189 -27.1926 4.14068 -0.0 0.0 -0.0 -0.0 0.0 -0.0 -0.0 0.0 -0.0 -7.73091 5.47488 -0.417314 -0.0 0.0 -0.0 -2.90554 0.965183 -0.102902 -0.0 0.0 -0.0 -10.2786 0.731801 -0.025912 -0.0 0.0 -0.0 -2.22167 -0.733487 0.20892 -0.0 0.0 -0.0 1.33349 -0.54485 -6.96306 -0.158043 41.1933 1.88911 -18.9755 -21.2563 -33.1862 0.0 0.0 0.0 71.6916 -60.461903 59.6913 2.91193 74.0204 -3.1006 0.432441 -3.27188 0.104347
-0.0229 68.4494 0.1683 -16.5043 -22.2241 13.3946 13.5501 6.21167 10.0912 -2.19648 -6.81796 2.80898 -1.94745 13.3252 0.676431 6.64331 -23.8158 2.82403 -0.0 0.0 0.0 -0.0 0.0 0.0 0.0 0.0 0.0 76.8046 44.8074 -18.8142 -28.4124 -36.7446 78.2616 -0.122103 9.91575 1.40779 0.0 0.0 -0.0 0.0 0.0 -0.0 0.0 0.0 -0.0 7.73091 5.47488 0.417314 0.0 0.0 -0.0 2.90554 0.965183 0.102902 0.0 0.0 -0.0 10.2786 0.731801 0.025912 0.0 0.0 -0.0 2.22167 -0.733487 -0.20892 0.0 0.0 0.0 -53.1814 31.573 -29.1941 28.432 -35.3929 -75.9973 0.999946 -27.1688 4.13643 -0.0 0.0 -0.0 -0.0 0.0 -0.0 -0.0 0.0 -0.0 -7.73091 5.47488 -0.417314 -0.0 0.0 -0.0 -2.90554 0.965183 -0.102902 -0.0 0.0 -0.0 -10.2786 0.731801 -0.025912 -0.0 0.0 -0.0 -2.22167 -0.733487 0.20892 -0.0 0.0 -0.0 1.38128 -0.543766 -6.93808 -0.157614 41.1704 1.88859 -19.0031 -21.1077 -33.3509 0.0 0.0 0.0 71.778 -60.525005 59.752796 2.92652 74.0827 -3.11654 0.430518 -3.35365 0.095498
-0.0255 68.4237 0.184 -16.497 -22.1463 13.4101 13.5441 6.20135 10.119 -2.19758 -6.79822 2.81383 -1.92059 13.3054 0.652746 6.61724 -23.8259 2.77183 -0.0 0.0 0.0 -0.0 0.0 0.0 0.0 0.0 0.0 76.7144 44.8343 -18.7138 -28.4125 -36.7381 78.2513 -0.119756 9.82085 1.39404 0.0 0.0 -0.0 0.0 0.0 -0.0 0.0 0.0 -0.0 7.73091 5.47488 0.417314 0.0 0.0 -0.0 2.90554 0.965183 0.102902 0.0 0.0 -0.0 10.2786 0.731801 0.025912 0.0 0.0 -0.0 2.22167 -0.733487 -0.20892 0.0 0.0 0.0 -53.2026 31.493097 -29.163403 28.4319 -35.379 -75.9742 0.996339 -27.1246 4.12855 -0.0 0.0 0.0 -0.0 0.0 0.0 -0.0 0.0 0.0 -7.73091 5.47488 -0.417314 -0.0 0.0 0.0 -2.90554 0.965183 -0.102902 -0.0 0.0 0.0 -10.2786 0.731801 -0.025912 -0.0 0.0 0.0 -2.22167 -0.733487 0.20892 -0.0 0.0 -0.0 1.42204 -0.540433 -6.9152 -0.157222 41.1475 1.88788 -19.0275 -20.9663 -33.5058 0.0 0.0 0.0 71.8645 -60.575405 59.8222 2.94083 74.1436 -3.13233 0.426184 -3.43945 0.0753
-0.0369 68.39551 0.212899 -16.4947 -22.1347 13.4278 13.5262 6.19165 10.1552 -2.1965 -6.78367 2.82198 -1.9173 13.3089 0.6255 6.62012 -23.8446 2.71946 -0.0 0.0 0.0 -0.0 0.0 0.0 0.0 0.0 0.0 76.6188 44.8808 -18.6075 -28.4129 -36.7282 78.2348 -0.117873 9.7436 1.38286 0.0 0.0 -0.0 0.0 0.0 -0.0 0.0 0.0 -0.0 7.73091 5.47488 0.417314 0.0 0.0 -0.0 2.90554 0.965183 0.102902 0.0 0.0 -0.0 10.2786 0.731801 0.025912 0.0 0.0 -0.0 2.22167 -0.733487 -0.20892 0.0 0.0 0.0 -53.2188 31.4193 -29.1221 28.4318 -35.3679 -75.9552 0.993195 -27.0859 4.12167 -0.0 0.0 0.0 -0.0 0.0 0.0 -0.0 0.0 0.0 -7.73091 5.47488 -0.417314 -0.0 0.0 0.0 -2.90554 0.965183 -0.102902 -0.0 0.0 0.0 -10.2786 0.731801 -0.025912 -0.0 0.0 0.0 -2.22167 -0.733487 0.20892 -0.0 0.0 -0.0 1.44657 -0.526914 -6.90059 -0.156743 41.1212 1.88726 -19.0498 -20.8681 -33.6232 0.0 0.0 0.0 71.9378 -60.6075 59.8875 2.9546 74.2016 -3.14746 0.41934 -3.52521 0.042552
-0.0569 68.3732 0.261 -16.5188 -22.1227 13.4332 13.4947 6.18087 10.2036 -2.19133 -6.77419 2.83503 -1.951 13.3501 0.592563 6.66936 -23.8743 2.6666 -0.0 0.0 0.0 -0.0 0.0 0.0 0.0 0.0 -0.0 76.5174 44.9524 -18.4994 -28.4134 -36.7125 78.2085 -0.116315 9.67944 1.37358 0.0 -0.0 -0.0 0.0 -0.0 -0.0 0.0 -0.0 -0.0 7.73091 5.47488 0.417314 0.0 -0.0 -0.0 2.90554 0.965183 0.102902 0.0 -0.0 -0.0 10.2786 0.731801 0.025912 0.0 -0.0 -0.0 2.22167 -0.733487 -0.20892 0.0 0.0 -0.0 -53.2311 31.3565 -29.065601 28.432 -35.3602 -75.9407 0.989788 -27.0437 4.11418 -0.0 0.0 0.0 -0.0 0.0 0.0 -0.0 0.0 0.0 -7.73091 5.47488 -0.417314 -0.0 0.0 0.0 -2.90554 0.965183 -0.102902 -0.0 0.0 0.0 -10.2786 0.731801 -0.025912 -0.0 0.0 0.0 -2.22167 -0.733487 0.20892 -0.0 0.0 -0.0 1.4499 -0.497914 -6.89685 -0.156167 41.0918 1.88683 -19.0712 -20.8311 -33.6893 0.0 0.0 0.0 71.9924 -60.6114 59.943703 2.96766 74.2561 -3.16172 0.408161 -3.60948 -0.012047
-0.060701 68.3644 0.286999 -16.4732 -22.1025 13.4485 13.4503 6.17015 10.2627 -2.18215 -6.76812 2.85188 -2.00942 13.4181 0.555502 6.75039 -23.9134 2.61305 -0.0 0.0 0.0 -0.0 0.0 0.0 -0.0 -0.0 -0.0 76.4079 45.0423 -18.3836 -28.4142 -36.6917 78.1733 -0.11489 9.6205 1.36506 -0.0 -0.0 0.0 -0.0 -0.0 0.0 -0.0 -0.0 0.0 7.73091 5.47488 0.417314 -0.0 -0.0 0.0 2.90554 0.965183 0.102902 -0.0 -0.0 0.0 10.2786 0.731801 0.025912 -0.0 -0.0 0.0 2.22167 -0.733487 -0.20892 -0.0 -0.0 -0.0 -53.2383 31.299702 -29.0029 28.4324 -35.3539 -75.9277 0.985429 -26.9896 4.10458 -0.0 -0.0 -0.0 -0.0 -0.0 -0.0 -0.0 -0.0 -0.0 -7.73091 5.47488 -0.417314 -0.0 -0.0 -0.0 -2.90554 0.965183 -0.102902 -0.0 -0.0 -0.0 -10.2786 0.731801 -0.025912 -0.0 -0.0 -0.0 -2.22167 -0.733487 0.20892 -0.0 0.0 -0.0 1.43777 -0.458726 -6.90036 -0.155555 41.0608 1.88642 -19.0911 -20.8331 -33.7212 0.0 0.0 0.0 72.0357 -60.592896 59.9977 2.98017 74.3079 -3.17539 0.393164 -3.69454 -0.084872
